<svg width="20" height="21" viewBox="0 0 20 21" fill="none" xmlns="http://www.w3.org/2000/svg">
<path d="M8.69565 0V0.967437H9.56522V0H8.69565ZM9.56522 0.967437V1.93487H10.4348V0.967437H9.56522ZM9.56522 1.93487H8.69565V2.90231H9.56522V1.93487ZM8.69565 1.93487V0.967437H7.82609V1.93487H8.69565ZM3.04348 0.483719C2.08452 0.483719 1.30435 1.3517 1.30435 2.41859V10.1581H0.434783C0.194652 10.1581 0 10.3747 0 10.6418V12.5767C0 12.8438 0.194652 13.0604 0.434783 13.0604H0.976393L2.33169 18.3378C2.55769 19.2178 3.29012 19.8325 4.11277 19.8325H5.11481L5.02293 19.8836C4.80815 20.0031 4.72116 20.2936 4.82855 20.5325C4.90472 20.7021 5.05825 20.8 5.21773 20.8C5.28304 20.8 5.34942 20.7836 5.41185 20.7489L7.05927 19.8325H13.3757L15.0229 20.7488C15.0854 20.7835 15.1517 20.8 15.2171 20.8C15.3765 20.8 15.5301 20.702 15.6062 20.5324C15.7136 20.2935 15.6266 20.003 15.4118 19.8835L15.3201 19.8325H15.8872C16.7099 19.8325 17.4423 19.2178 17.6683 18.3378L19.0236 13.0604H19.5652C19.8053 13.0604 20 12.8438 20 12.5767V10.6418C20 10.3747 19.8053 10.1581 19.5652 10.1581H17.9665C18.1586 9.70833 18.2609 9.21378 18.2609 8.70694C18.2609 6.83988 16.8956 5.32091 15.2174 5.32091C14.192 5.32091 13.2515 5.88723 12.6897 6.82119C12.5194 6.78854 12.3469 6.77206 12.1739 6.77206C11.4524 6.77206 10.7542 7.06031 10.2078 7.57407C9.88154 7.36694 9.51 7.25578 9.13043 7.25578C7.93174 7.25578 6.95652 8.34076 6.95652 9.67437C6.95652 9.8374 6.97154 9.99945 7.00068 10.1581H2.17391V2.41859C2.17391 1.88515 2.564 1.45116 3.04348 1.45116C3.39541 1.45116 3.69846 1.68542 3.83517 2.02075C3.12568 2.26476 2.6087 3.00132 2.6087 3.86975V4.83719C2.6087 5.10434 2.80335 5.32091 3.04348 5.32091H5.65217C5.8923 5.32091 6.08696 5.10434 6.08696 4.83719V3.86975C6.08696 2.95211 5.50959 2.18219 4.73794 1.98457C4.56031 1.12606 3.86828 0.483719 3.04348 0.483719ZM4.34783 2.90231C4.8273 2.90231 5.21739 3.3363 5.21739 3.86975V4.35347H3.47826V3.86975C3.47826 3.3363 3.86835 2.90231 4.34783 2.90231ZM17.8261 2.90231V3.86975H18.6957V2.90231H17.8261ZM18.6957 3.86975V4.83719H19.5652V3.86975H18.6957ZM18.6957 4.83719H17.8261V5.80462H18.6957V4.83719ZM17.8261 4.83719V3.86975H16.9565V4.83719H17.8261ZM3.47826 5.80462C3.23813 5.80462 3.04348 6.02119 3.04348 6.28834V7.7395C3.04348 8.00666 3.23813 8.22322 3.47826 8.22322C3.71839 8.22322 3.91304 8.00666 3.91304 7.7395V6.28834C3.91304 6.02119 3.71839 5.80462 3.47826 5.80462ZM15.2174 6.28834C16.4161 6.28834 17.3913 7.37332 17.3913 8.70694C17.3913 9.23288 17.2379 9.74084 16.9562 10.1581H7.90073C7.85156 10.0034 7.82609 9.83971 7.82609 9.67437C7.82609 8.87421 8.41122 8.22322 9.13043 8.22322C9.43787 8.22322 9.73656 8.34474 9.97138 8.56551C10.1495 8.73302 10.4145 8.71425 10.5722 8.52318C10.9832 8.02509 11.567 7.7395 12.1739 7.7395C12.3787 7.7395 12.5828 7.77187 12.7805 7.83568C12.9796 7.89996 13.1918 7.79881 13.2874 7.5941C13.6636 6.78871 14.4031 6.28834 15.2174 6.28834ZM4.78261 6.77206C4.54248 6.77206 4.34783 6.98862 4.34783 7.25578V8.70694C4.34783 8.97409 4.54248 9.19066 4.78261 9.19066C5.02274 9.19066 5.21739 8.97409 5.21739 8.70694V7.25578C5.21739 6.98862 5.02274 6.77206 4.78261 6.77206ZM0.869565 11.1255H19.1304V12.093H18.6957H1.30435H0.869565V11.1255ZM1.88077 13.0604H18.1192L16.8322 18.072C16.7123 18.539 16.3237 18.865 15.8872 18.865H4.11277C3.67629 18.865 3.28771 18.5389 3.1678 18.072L2.37763 14.9953H15.2174C15.4575 14.9953 15.6522 14.7787 15.6522 14.5116C15.6522 14.2445 15.4575 14.0278 15.2174 14.0278H2.17391C2.15905 14.0278 2.14432 14.0287 2.12984 14.0303L1.88077 13.0604Z" fill="#546E7A"/>
</svg>
