<svg width="22" height="22" viewBox="0 0 22 22" fill="none" xmlns="http://www.w3.org/2000/svg">
<path d="M1.32 3.95996C0.596 3.95996 0 4.55596 0 5.27996V18.48H2.64V16.28H19.36V18.48H22V12.76V12.32V11.88C22 10.672 21.008 9.67996 19.8 9.67996H9.24C9.12331 9.67997 9.0114 9.72633 8.92889 9.80885C8.84637 9.89136 8.80001 10.0033 8.8 10.12V12.32H8.7957C8.79318 12.2991 8.78916 12.2784 8.78367 12.2581C8.78367 12.2581 8.2222 10.0251 6.39203 9.1609C5.93541 8.94527 5.46184 8.8423 5.00844 8.80941C3.93132 8.7313 2.99446 9.0386 2.64 9.17379V5.27996C2.64 4.55596 2.044 3.95996 1.32 3.95996ZM1.32 4.83996C1.564 4.83996 1.76 5.03596 1.76 5.27996V13.2H2.2H6.14625C6.3264 13.2093 6.50227 13.2094 6.67219 13.2H9.24H21.12V17.6H20.24V15.4H1.76V17.6H0.88V5.27996C0.88 5.03596 1.076 4.83996 1.32 4.83996ZM4.94914 9.70488C5.31249 9.72562 5.68111 9.79831 6.01648 9.95668C7.08762 10.4625 7.56197 11.5744 7.75328 12.0811C7.45835 12.175 6.94756 12.3143 6.36539 12.32H6.17633C5.79369 12.303 5.38709 12.2223 4.99297 12.0252C4.98983 12.0237 4.98668 12.0223 4.98352 12.0209C3.91367 11.5157 3.4428 10.4402 3.2493 9.93863C3.6062 9.82436 4.14881 9.65919 4.94914 9.70488ZM9.68 10.56H19.8C20.528 10.56 21.12 11.152 21.12 11.88V12.32H9.68V10.56ZM2.64 10.7937C2.89529 11.2844 3.27744 11.8559 3.83969 12.32H2.64V10.7937Z" fill="#546E7A"/>
</svg>
