<svg width="16" height="16" viewBox="0 0 16 16" fill="none" xmlns="http://www.w3.org/2000/svg">
<path d="M14.896 6.21061L13.6295 1.94395C13.2843 0.781496 12.3502 0 11.3052 0H4.69477C3.64985 0 2.71569 0.781497 2.37108 1.94322L1.10462 6.20989C0.428308 6.73451 0 7.64082 0 8.63782V13.7868C0 14.5887 0.550769 15.2381 1.23077 15.2381C1.91077 15.2381 2.46154 14.5887 2.46154 13.7868V12.8718C2.46154 12.8718 5.71138 13.0612 8 13.0612C10.2886 13.0612 13.5385 12.8718 13.5385 12.8718V13.7868C13.5385 14.5887 14.0892 15.2381 14.7692 15.2381C15.4492 15.2381 16 14.5887 16 13.7868V8.63782C16 7.64082 15.5711 6.73451 14.896 6.21061ZM2.82769 4.79855L3.53292 2.42286C3.70585 1.84091 4.17169 1.45125 4.69477 1.45125H11.3052C11.8283 1.45125 12.2942 1.84091 12.4671 2.42286L13.1723 4.79855C13.2831 5.17224 13.0191 5.54884 12.6874 5.48571C11.4806 5.25569 9.92923 5.07936 8 5.07936C6.07077 5.07936 4.51938 5.25569 3.31262 5.48571C2.98092 5.54884 2.71692 5.17224 2.82769 4.79855ZM2.76923 10.1587C2.25969 10.1587 1.84615 9.67111 1.84615 9.07029C1.84615 8.46948 2.25969 7.98186 2.76923 7.98186C3.27877 7.98186 3.69231 8.46948 3.69231 9.07029C3.69231 9.67111 3.27877 10.1587 2.76923 10.1587ZM9.84615 9.43311H6.15385C5.81415 9.43311 5.53846 9.10803 5.53846 8.70748C5.53846 8.30694 5.81415 7.98186 6.15385 7.98186H9.84615C10.1858 7.98186 10.4615 8.30694 10.4615 8.70748C10.4615 9.10803 10.1858 9.43311 9.84615 9.43311ZM13.2308 10.1587C12.7212 10.1587 12.3077 9.67111 12.3077 9.07029C12.3077 8.46948 12.7212 7.98186 13.2308 7.98186C13.7403 7.98186 14.1538 8.46948 14.1538 9.07029C14.1538 9.67111 13.7403 10.1587 13.2308 10.1587Z" fill="#546E7A"/>
</svg>
